<svg height="512" viewBox="0 0 512 512" width="512" xmlns="http://www.w3.org/2000/svg" xmlns:xlink="http://www.w3.org/1999/xlink"><linearGradient id="a" gradientUnits="userSpaceOnUse" x1="81.968" x2="576.606" y1="550.032" y2="55.394" data-name="New Gradient Swatch 1"><stop offset="0" stop-color="#003f8a"/><stop offset=".518" stop-color="#00d7df"/><stop offset="1" stop-color="#006df0"/></linearGradient><linearGradient id="b" x1="37.968" x2="532.606" xlink:href="#a" y1="506.032" y2="11.394"/><g><path d="m503.16 492.42-76.82-153.62c27.04-24.23 43.17-44.86 43.98-45.9a7.986 7.986 0 0 0 0-9.8c-.97-1.26-24.3-31.11-62.26-61.36a330.881 330.881 0 0 0 -59.33-38.18l-85.57-171.14a8.009 8.009 0 0 0 -14.32 0l-85.57 171.14a330.881 330.881 0 0 0 -59.33 38.18c-37.96 30.25-61.29 60.1-62.26 61.36a7.986 7.986 0 0 0 0 9.8c.81 1.04 16.94 21.67 43.98 45.9l-76.82 153.62a8 8 0 0 0 7.16 11.58h480a8 8 0 0 0 7.16-11.58zm-247.16-458.53 69.85 139.69c-23.72-8.97-47.19-13.58-69.85-13.58s-46.13 4.61-69.85 13.58zm-197.65 254.11a410.891 410.891 0 0 1 55.85-53.98c33.28-26.47 84.89-58.02 141.8-58.02s108.52 31.55 141.8 58.02a410.891 410.891 0 0 1 55.85 53.98 410.891 410.891 0 0 1 -55.85 53.98c-33.28 26.47-84.89 58.02-141.8 58.02s-108.52-31.55-141.8-58.02a411.509 411.509 0 0 1 -55.85-53.98zm-29.41 200 69.23-138.44q2.82 2.34 5.77 4.7c50.68 40.39 103.26 61.74 152.06 61.74s101.38-21.35 152.06-61.74q2.955-2.355 5.77-4.7l69.23 138.44z" fill="url(#a)"/><g fill="url(#b)"><path d="m256 376a88 88 0 1 0 -88-88 88.1 88.1 0 0 0 88 88zm0-160a72 72 0 1 1 -72 72 72.081 72.081 0 0 1 72-72z"/><path d="m280 288a24 24 0 1 0 -24-24 24.028 24.028 0 0 0 24 24zm0-32a8 8 0 1 1 -8 8 8.009 8.009 0 0 1 8-8z"/><circle cx="224" cy="320" r="8"/></g></g></svg>